P3
# CREATOR: The GIMP's PNM Filter Version 1.0
80 80
255
0
0
0
0
0
0
0
0
0
0
0
0
0
0
0
0
0
0
0
0
0
0
0
0
0
0
0
0
0
0
0
0
0
0
0
0
0
0
0
0
0
0
0
0
0
0
0
0
0
0
0
0
0
0
0
0
0
0
0
0
0
0
0
0
0
0
0
0
0
0
0
0
0
0
0
0
0
0
0
0
0
0
0
0
0
0
0
0
0
0
0
0
0
0
0
0
0
0
0
0
0
0
0
0
0
0
0
0
0
0
0
0
0
0
0
0
0
0
0
0
0
0
0
0
0
0
0
0
0
0
0
0
0
0
0
0
0
0
0
0
0
0
0
0
0
0
0
0
0
0
0
0
0
0
0
0
0
0
0
0
0
0
0
0
0
0
0
0
0
0
0
0
0
0
0
0
0
0
0
0
0
0
0
0
0
0
0
0
0
0
0
0
0
0
0
0
0
0
0
0
0
0
0
0
0
0
0
0
0
0
0
0
0
0
0
0
0
0
0
0
0
0
0
0
0
0
0
0
0
0
0
0
0
0
0
0
0
0
0
0
0
0
0
0
0
0
0
0
0
0
0
0
0
0
0
0
0
0
0
0
0
0
0
0
0
0
0
0
0
0
0
0
0
0
0
0
0
0
0
0
0
0
0
0
0
0
0
0
0
0
0
0
0
0
0
0
0
0
0
0
0
0
0
0
0
0
0
0
0
0
0
0
0
0
0
0
0
0
0
0
0
0
0
0
0
0
0
0
0
0
0
0
0
0
0
0
0
0
0
0
0
0
0
0
0
0
0
0
0
0
0
0
0
0
0
0
0
0
0
0
0
0
0
0
0
0
30
30
30
34
34
34
34
34
34
34
34
34
13
13
12
0
0
0
0
0
0
0
0
0
0
0
0
0
0
0
0
0
0
0
0
0
0
0
0
0
0
0
0
0
0
0
0
0
0
0
0
0
0
0
0
0
0
0
0
0
0
0
0
0
0
0
0
0
0
0
0
0
0
0
0
0
0
0
0
0
0
0
0
0
0
0
0
0
0
0
0
0
0
0
0
0
0
0
0
0
0
0
0
0
0
0
0
0
0
0
0
0
0
0
0
0
0
0
0
0
0
0
0
0
0
0
0
0
0
0
0
0
0
0
0
0
0
0
0
0
0
0
0
0
0
0
0
0
0
0
0
0
0
0
0
0
0
0
0
0
0
0
0
0
0
0
0
0
0
0
0
0
0
0
0
0
0
0
0
0
0
0
0
0
0
0
0
0
0
0
0
0
0
0
0
0
0
0
0
0
0
0
0
0
0
0
0
0
0
0
0
0
0
0
0
0
0
0
0
0
0
0
0
0
0
0
0
0
0
0
0
0
0
0
24
23
22
31
31
31
12
12
12
11
11
11
11
11
11
11
11
11
8
8
7
40
40
40
18
18
18
1
1
1
0
0
0
0
0
0
0
0
0
0
0
0
0
0
0
0
0
0
0
0
0
0
0
0
0
0
0
0
0
0
0
0
0
0
0
0
0
0
0
0
0
0
0
0
0
0
0
0
0
0
0
0
0
0
0
0
0
0
0
0
0
0
0
0
0
0
0
0
0
0
0
0
0
0
0
0
0
0
0
0
0
0
0
0
0
0
0
0
0
0
0
0
0
0
0
0
0
0
0
0
0
0
0
0
0
0
0
0
0
0
0
0
0
0
0
0
0
0
0
0
0
0
0
0
0
0
0
0
0
0
0
0
0
0
0
0
0
0
0
0
0
0
0
0
0
0
0
0
0
0
0
0
0
0
0
0
0
0
0
0
0
0
0
0
0
0
0
0
0
0
0
0
0
0
0
0
0
0
0
0
0
0
0
0
0
0
0
0
0
0
0
0
0
0
0
0
0
0
0
0
0
0
0
0
0
0
0
30
30
30
18
18
18
1
1
1
0
0
0
0
0
0
0
0
0
0
0
0
0
0
0
0
0
0
11
11
11
34
34
34
3
3
3
0
0
0
0
0
0
0
0
0
0
0
0
0
0
0
0
0
0
0
0
0
0
0
0
0
0
0
0
0
0
0
0
0
0
0
0
0
0
0
0
0
0
0
0
0
0
0
0
0
0
0
0
0
0
0
0
0
0
0
0
0
0
0
0
0
0
0
0
0
0
0
0
0
0
0
0
0
0
0
0
0
0
0
0
0
0
0
0
0
0
0
0
0
0
0
0
0
0
0
0
0
0
0
0
0
0
0
0
0
0
0
0
0
0
0
0
0
0
0
0
0
0
0
0
0
0
0
0
0
0
0
0
0
0
0
0
0
0
0
0
0
0
0
0
0
0
0
0
0
0
0
0
0
0
0
0
0
0
0
0
0
0
0
0
0
0
0
0
0
0
0
0
0
0
0
0
0
0
0
0
0
0
0
0
0
0
0
0
0
0
0
0
0
0
0
0
0
0
0
0
0
3
3
3
27
27
26
0
0
0
0
0
0
0
0
0
0
0
0
0
0
0
0
0
0
4
4
4
78
74
67
10
10
10
10
10
10
30
30
30
0
0
0
0
0
0
0
0
0
0
0
0
0
0
0
0
0
0
0
0
0
0
0
0
0
0
0
0
0
0
0
0
0
0
0
0
0
0
0
0
0
0
0
0
0
0
0
0
0
0
0
0
0
0
0
0
0
0
0
0
0
0
0
0
0
0
0
0
0
0
0
0
0
0
0
0
0
0
0
0
0
0
0
0
0
0
0
0
0
0
0
0
0
0
0
0
0
0
0
0
0
0
0
0
0
0
0
0
0
0
0
0
0
0
0
0
0
0
0
0
0
0
0
0
0
0
0
0
0
0
0
0
0
0
0
0
0
0
0
0
0
0
0
0
0
0
0
0
0
0
0
0
0
0
0
0
0
0
0
0
0
0
0
0
0
0
0
0
0
0
0
0
0
0
0
0
0
0
0
0
0
0
0
0
0
0
0
0
0
0
0
0
0
0
0
0
0
0
0
0
0
30
30
30
0
0
0
0
0
0
0
0
0
0
0
0
0
0
0
0
0
0
0
0
0
12
12
12
138
139
141
30
30
30
0
0
0
18
18
18
10
9
9
0
0
0
0
0
0
0
0
0
0
0
0
0
0
0
0
0
0
0
0
0
0
0
0
0
0
0
0
0
0
0
0
0
0
0
0
0
0
0
0
0
0
0
0
0
0
0
0
0
0
0
0
0
0
0
0
0
0
0
0
0
0
0
0
0
0
0
0
0
0
0
0
0
0
0
0
0
0
0
0
0
0
0
0
0
0
0
0
0
0
0
0
0
0
0
0
0
0
0
0
0
0
0
0
0
0
0
0
0
0
0
0
0
0
0
0
0
0
0
0
0
0
0
0
0
0
0
0
0
0
0
0
0
0
0
0
0
0
0
0
0
0
0
0
0
0
0
0
0
0
0
0
0
0
0
0
0
0
0
0
0
0
0
0
0
0
0
0
0
0
0
0
0
0
0
0
0
0
0
0
0
0
0
0
0
0
0
0
0
0
0
0
0
0
0
0
0
0
24
23
22
0
0
0
0
0
0
0
0
0
0
0
0
0
0
0
0
0
0
0
0
0
0
0
0
0
0
0
0
0
0
0
0
0
5
5
4
30
30
30
0
0
0
0
0
0
0
0
0
0
0
0
0
0
0
0
0
0
0
0
0
0
0
0
0
0
0
0
0
0
0
0
0
0
0
0
0
0
0
0
0
0
0
0
0
0
0
0
0
0
0
0
0
0
0
0
0
0
0
0
0
0
0
0
0
0
0
0
0
0
0
0
0
0
0
0
0
0
0
0
0
0
0
0
0
0
0
0
0
0
0
0
0
0
0
0
0
0
0
0
0
0
0
0
0
0
0
0
0
0
0
0
0
0
0
0
0
0
0
0
0
0
0
0
0
0
0
0
0
0
0
0
0
0
0
0
0
0
0
0
0
0
0
0
0
0
0
0
0
0
0
0
0
0
0
0
0
0
0
0
0
0
0
0
0
0
0
0
0
0
0
0
0
0
0
0
0
0
0
0
0
0
0
0
0
0
0
0
0
0
0
0
0
0
0
6
6
5
18
18
18
0
0
0
0
0
0
0
0
0
0
0
0
0
0
0
0
0
0
0
0
0
0
0
0
0
0
0
0
0
0
0
0
0
0
0
0
45
45
45
0
0
0
0
0
0
0
0
0
0
0
0
0
0
0
0
0
0
0
0
0
0
0
0
0
0
0
0
0
0
0
0
0
0
0
0
0
0
0
0
0
0
0
0
0
0
0
0
0
0
0
0
0
0
0
0
0
0
0
0
0
0
0
0
0
0
0
0
0
0
0
0
0
0
0
0
0
0
0
0
0
0
0
0
0
0
0
0
0
0
0
0
0
0
0
0
0
0
0
0
0
0
0
0
0
0
0
0
0
0
0
0
0
0
0
0
0
0
0
0
0
0
0
0
0
0
0
0
0
0
0
0
0
0
0
0
0
0
0
0
0
0
0
0
0
0
0
0
0
0
0
0
0
0
0
0
0
0
0
0
0
0
0
0
0
0
0
0
0
0
0
0
0
0
0
0
0
0
0
0
0
0
0
0
0
0
0
0
0
0
0
0
0
0
0
11
11
11
34
34
34
0
0
0
87
88
89
58
58
58
1
1
1
0
0
0
15
15
15
125
125
125
164
161
158
85
79
76
0
0
0
0
0
0
0
0
0
45
45
45
0
0
0
0
0
0
0
0
0
0
0
0
0
0
0
0
0
0
0
0
0
0
0
0
0
0
0
0
0
0
0
0
0
0
0
0
0
0
0
0
0
0
0
0
0
0
0
0
0
0
0
0
0
0
0
0
0
0
0
0
0
0
0
0
0
0
0
0
0
0
0
0
0
0
0
0
0
0
0
0
0
0
0
0
0
0
0
0
0
0
0
0
0
0
0
0
0
0
0
0
0
0
0
0
0
0
0
0
0
0
0
0
0
0
0
0
0
0
0
0
0
0
0
0
0
0
0
0
0
0
0
0
0
0
0
0
0
0
0
0
0
0
0
0
0
0
0
0
0
0
0
0
0
0
0
0
0
0
0
0
0
0
0
0
0
0
0
0
0
0
0
0
0
0
0
0
0
0
0
0
0
0
0
0
0
0
0
0
0
0
0
0
0
0
0
11
11
11
34
34
34
87
88
89
190
190
190
207
209
213
24
24
24
0
0
0
105
102
98
222
222
223
190
190
190
231
231
231
24
24
24
0
0
0
0
0
0
40
37
34
0
0
0
0
0
0
0
0
0
0
0
0
0
0
0
0
0
0
0
0
0
0
0
0
0
0
0
0
0
0
0
0
0
0
0
0
0
0
0
0
0
0
0
0
0
0
0
0
0
0
0
0
0
0
0
0
0
0
0
0
0
0
0
0
0
0
0
0
0
0
0
0
0
0
0
0
0
0
0
0
0
0
0
0
0
0
0
0
0
0
0
0
0
0
0
0
0
0
0
0
0
0
0
0
0
0
0
0
0
0
0
0
0
0
0
0
0
0
0
0
0
0
0
0
0
0
0
0
0
0
0
0
0
0
0
0
0
0
0
0
0
0
0
0
0
0
0
0
0
0
0
0
0
0
0
0
0
0
0
0
0
0
0
0
0
0
0
0
0
0
0
0
0
0
0
0
0
0
0
0
0
0
0
0
0
0
0
0
0
0
0
0
0
0
0
11
11
11
34
34
34
85
79
76
31
31
31
125
125
125
58
58
58
0
0
0
169
168
160
78
76
69
58
58
58
154
156
159
105
102
98
0
0
0
0
0
0
3
3
3
0
0
0
0
0
0
0
0
0
0
0
0
0
0
0
0
0
0
0
0
0
0
0
0
0
0
0
0
0
0
0
0
0
0
0
0
0
0
0
0
0
0
0
0
0
0
0
0
0
0
0
0
0
0
0
0
0
0
0
0
0
0
0
0
0
0
0
0
0
0
0
0
0
0
0
0
0
0
0
0
0
0
0
0
0
0
0
0
0
0
0
0
0
0
0
0
0
0
0
0
0
0
0
0
0
0
0
0
0
0
0
0
0
0
0
0
0
0
0
0
0
0
0
0
0
0
0
0
0
0
0
0
0
0
0
0
0
0
0
0
0
0
0
0
0
0
0
0
0
0
0
0
0
0
0
0
0
0
0
0
0
0
0
0
0
0
0
0
0
0
0
0
0
0
0
0
0
0
0
0
0
0
0
0
0
0
0
0
0
0
0
0
0
0
0
11
11
11
34
34
34
78
76
69
10
10
10
78
74
67
98
73
53
58
40
17
146
137
128
46
38
34
4
4
4
125
125
125
125
125
125
0
0
0
0
0
0
8
8
7
5
5
4
0
0
0
0
0
0
0
0
0
0
0
0
0
0
0
0
0
0
0
0
0
0
0
0
0
0
0
0
0
0
0
0
0
0
0
0
0
0
0
0
0
0
0
0
0
0
0
0
0
0
0
0
0
0
0
0
0
0
0
0
0
0
0
0
0
0
0
0
0
0
0
0
0
0
0
0
0
0
0
0
0
0
0
0
0
0
0
0
0
0
0
0
0
0
0
0
0
0
0
0
0
0
0
0
0
0
0
0
0
0
0
0
0
0
0
0
0
0
0
0
0
0
0
0
0
0
0
0
0
0
0
0
0
0
0
0
0
0
0
0
0
0
0
0
0
0
0
0
0
0
0
0
0
0
0
0
0
0
0
0
0
0
0
0
0
0
0
0
0
0
0
0
0
0
0
0
0
0
0
0
0
0
0
0
0
0
0
0
0
0
0
0
11
11
11
34
34
34
34
34
34
106
88
64
152
88
49
251
204
48
251
204
48
206
115
64
152
88
49
40
33
17
78
74
67
58
58
58
0
0
0
0
0
0
25
25
25
24
23
22
0
0
0
0
0
0
0
0
0
0
0
0
0
0
0
0
0
0
0
0
0
0
0
0
0
0
0
0
0
0
0
0
0
0
0
0
0
0
0
0
0
0
0
0
0
0
0
0
0
0
0
0
0
0
0
0
0
0
0
0
0
0
0
0
0
0
0
0
0
0
0
0
0
0
0
0
0
0
0
0
0
0
0
0
0
0
0
0
0
0
0
0
0
0
0
0
0
0
0
0
0
0
0
0
0
0
0
0
0
0
0
0
0
0
0
0
0
0
0
0
0
0
0
0
0
0
0
0
0
0
0
0
0
0
0
0
0
0
0
0
0
0
0
0
0
0
0
0
0
0
0
0
0
0
0
0
0
0
0
0
0
0
0
0
0
0
0
0
0
0
0
0
0
0
0
0
0
0
0
0
0
0
0
0
0
0
0
0
0
0
0
0
11
11
11
34
34
34
58
40
17
251
204
48
251
204
48
251
204
48
251
204
48
251
204
48
251
204
48
251
204
48
165
97
59
40
33
17
0
0
0
0
0
0
24
24
24
18
18
18
0
0
0
0
0
0
0
0
0
0
0
0
0
0
0
0
0
0
0
0
0
0
0
0
0
0
0
0
0
0
0
0
0
0
0
0
0
0
0
0
0
0
0
0
0
0
0
0
0
0
0
0
0
0
0
0
0
0
0
0
0
0
0
0
0
0
0
0
0
0
0
0
0
0
0
0
0
0
0
0
0
0
0
0
0
0
0
0
0
0
0
0
0
0
0
0
0
0
0
0
0
0
0
0
0
0
0
0
0
0
0
0
0
0
0
0
0
0
0
0
0
0
0
0
0
0
0
0
0
0
0
0
0
0
0
0
0
0
0
0
0
0
0
0
0
0
0
0
0
0
0
0
0
0
0
0
0
0
0
0
0
0
0
0
0
0
0
0
0
0
0
0
0
0
0
0
0
0
0
0
0
0
0
0
0
0
0
0
0
0
0
0
4
4
4
24
23
22
88
49
27
251
204
48
251
204
48
251
204
48
251
204
48
251
204
48
251
204
48
206
115
64
141
78
34
104
72
47
1
1
1
1
1
1
6
6
5
8
8
7
0
0
0
0
0
0
0
0
0
0
0
0
0
0
0
0
0
0
0
0
0
0
0
0
0
0
0
0
0
0
0
0
0
0
0
0
0
0
0
0
0
0
0
0
0
0
0
0
0
0
0
0
0
0
0
0
0
0
0
0
0
0
0
0
0
0
0
0
0
0
0
0
0
0
0
0
0
0
0
0
0
0
0
0
0
0
0
0
0
0
0
0
0
0
0
0
0
0
0
0
0
0
0
0
0
0
0
0
0
0
0
0
0
0
0
0
0
0
0
0
0
0
0
0
0
0
0
0
0
0
0
0
0
0
0
0
0
0
0
0
0
0
0
0
0
0
0
0
0
0
0
0
0
0
0
0
0
0
0
0
0
0
0
0
0
0
0
0
0
0
0
0
0
0
0
0
0
0
0
0
0
0
0
0
0
0
0
0
0
0
0
0
0
0
0
45
45
45
0
0
0
165
97
59
251
204
48
251
204
48
206
115
64
141
78
34
141
78
34
165
97
59
251
204
48
40
33
17
13
13
12
78
76
69
3
3
3
26
26
26
0
0
0
0
0
0
0
0
0
0
0
0
0
0
0
0
0
0
0
0
0
0
0
0
0
0
0
0
0
0
0
0
0
0
0
0
0
0
0
0
0
0
0
0
0
0
0
0
0
0
0
0
0
0
0
0
0
0
0
0
0
0
0
0
0
0
0
0
0
0
0
0
0
0
0
0
0
0
0
0
0
0
0
0
0
0
0
0
0
0
0
0
0
0
0
0
0
0
0
0
0
0
0
0
0
0
0
0
0
0
0
0
0
0
0
0
0
0
0
0
0
0
0
0
0
0
0
0
0
0
0
0
0
0
0
0
0
0
0
0
0
0
0
0
0
0
0
0
0
0
0
0
0
0
0
0
0
0
0
0
0
0
0
0
0
0
0
0
0
0
0
0
0
0
0
0
0
0
0
0
0
0
0
0
0
0
0
0
0
0
0
0
0
0
0
45
45
45
28
28
28
3
2
1
88
49
27
88
49
27
141
78
34
206
115
64
152
88
49
106
92
77
194
192
181
45
45
45
0
0
0
117
108
100
87
88
89
10
10
10
34
34
34
0
0
0
0
0
0
0
0
0
0
0
0
0
0
0
0
0
0
0
0
0
0
0
0
0
0
0
0
0
0
0
0
0
0
0
0
0
0
0
0
0
0
0
0
0
0
0
0
0
0
0
0
0
0
0
0
0
0
0
0
0
0
0
0
0
0
0
0
0
0
0
0
0
0
0
0
0
0
0
0
0
0
0
0
0
0
0
0
0
0
0
0
0
0
0
0
0
0
0
0
0
0
0
0
0
0
0
0
0
0
0
0
0
0
0
0
0
0
0
0
0
0
0
0
0
0
0
0
0
0
0
0
0
0
0
0
0
0
0
0
0
0
0
0
0
0
0
0
0
0
0
0
0
0
0
0
0
0
0
0
0
0
0
0
0
0
0
0
0
0
0
0
0
0
0
0
0
0
0
0
0
0
0
0
0
0
0
0
0
25
25
25
30
30
30
174
174
174
105
102
98
40
33
17
141
78
34
88
49
27
73
64
54
182
181
174
251
251
251
255
255
255
173
170
167
8
8
7
3
3
3
4
4
4
0
0
0
33
33
33
13
13
12
0
0
0
0
0
0
0
0
0
0
0
0
0
0
0
0
0
0
0
0
0
0
0
0
0
0
0
0
0
0
0
0
0
0
0
0
0
0
0
0
0
0
0
0
0
0
0
0
0
0
0
0
0
0
0
0
0
0
0
0
0
0
0
0
0
0
0
0
0
0
0
0
0
0
0
0
0
0
0
0
0
0
0
0
0
0
0
0
0
0
0
0
0
0
0
0
0
0
0
0
0
0
0
0
0
0
0
0
0
0
0
0
0
0
0
0
0
0
0
0
0
0
0
0
0
0
0
0
0
0
0
0
0
0
0
0
0
0
0
0
0
0
0
0
0
0
0
0
0
0
0
0
0
0
0
0
0
0
0
0
0
0
0
0
0
0
0
0
0
0
0
0
0
0
0
0
0
0
0
0
0
0
0
5
5
4
40
40
40
45
45
45
241
241
241
231
231
231
58
58
58
8
8
7
87
88
89
222
222
223
255
255
255
255
255
255
255
255
255
251
251
251
117
108
100
1
1
1
0
0
0
0
0
0
8
8
7
31
31
31
0
0
0
0
0
0
0
0
0
0
0
0
0
0
0
0
0
0
0
0
0
0
0
0
0
0
0
0
0
0
0
0
0
0
0
0
0
0
0
0
0
0
0
0
0
0
0
0
0
0
0
0
0
0
0
0
0
0
0
0
0
0
0
0
0
0
0
0
0
0
0
0
0
0
0
0
0
0
0
0
0
0
0
0
0
0
0
0
0
0
0
0
0
0
0
0
0
0
0
0
0
0
0
0
0
0
0
0
0
0
0
0
0
0
0
0
0
0
0
0
0
0
0
0
0
0
0
0
0
0
0
0
0
0
0
0
0
0
0
0
0
0
0
0
0
0
0
0
0
0
0
0
0
0
0
0
0
0
0
0
0
0
0
0
0
0
0
0
0
0
0
0
0
0
0
0
0
0
0
0
0
0
0
41
41
41
14
14
13
151
150
149
255
255
255
255
255
255
231
231
231
207
207
207
241
241
241
255
255
255
255
255
255
255
255
255
255
255
255
255
255
255
210
212
216
18
17
16
0
0
0
0
0
0
0
0
0
18
18
18
26
26
26
0
0
0
0
0
0
0
0
0
0
0
0
0
0
0
0
0
0
0
0
0
0
0
0
0
0
0
0
0
0
0
0
0
0
0
0
0
0
0
0
0
0
0
0
0
0
0
0
0
0
0
0
0
0
0
0
0
0
0
0
0
0
0
0
0
0
0
0
0
0
0
0
0
0
0
0
0
0
0
0
0
0
0
0
0
0
0
0
0
0
0
0
0
0
0
0
0
0
0
0
0
0
0
0
0
0
0
0
0
0
0
0
0
0
0
0
0
0
0
0
0
0
0
0
0
0
0
0
0
0
0
0
0
0
0
0
0
0
0
0
0
0
0
0
0
0
0
0
0
0
0
0
0
0
0
0
0
0
0
0
0
0
0
0
0
0
0
0
0
0
0
0
0
0
0
0
0
24
23
22
24
24
24
26
26
26
231
231
231
255
255
255
255
255
255
255
255
255
255
255
255
255
255
255
255
255
255
255
255
255
255
255
255
255
255
255
255
255
255
255
255
255
58
58
58
2
2
1
15
15
15
1
1
1
1
1
1
30
30
30
8
8
7
0
0
0
0
0
0
0
0
0
0
0
0
0
0
0
0
0
0
0
0
0
0
0
0
0
0
0
0
0
0
0
0
0
0
0
0
0
0
0
0
0
0
0
0
0
0
0
0
0
0
0
0
0
0
0
0
0
0
0
0
0
0
0
0
0
0
0
0
0
0
0
0
0
0
0
0
0
0
0
0
0
0
0
0
0
0
0
0
0
0
0
0
0
0
0
0
0
0
0
0
0
0
0
0
0
0
0
0
0
0
0
0
0
0
0
0
0
0
0
0
0
0
0
0
0
0
0
0
0
0
0
0
0
0
0
0
0
0
0
0
0
0
0
0
0
0
0
0
0
0
0
0
0
0
0
0
0
0
0
0
0
0
0
0
0
0
0
0
0
0
0
18
18
18
34
34
34
0
0
0
33
33
33
255
255
255
255
255
255
255
255
255
255
255
255
255
255
255
255
255
255
255
255
255
255
255
255
255
255
255
255
255
255
255
255
255
255
255
255
125
125
125
4
4
4
105
102
98
58
58
58
0
0
0
1
1
1
45
45
45
1
1
1
0
0
0
0
0
0
0
0
0
0
0
0
0
0
0
0
0
0
0
0
0
0
0
0
0
0
0
0
0
0
0
0
0
0
0
0
0
0
0
0
0
0
0
0
0
0
0
0
0
0
0
0
0
0
0
0
0
0
0
0
0
0
0
0
0
0
0
0
0
0
0
0
0
0
0
0
0
0
0
0
0
0
0
0
0
0
0
0
0
0
0
0
0
0
0
0
0
0
0
0
0
0
0
0
0
0
0
0
0
0
0
0
0
0
0
0
0
0
0
0
0
0
0
0
0
0
0
0
0
0
0
0
0
0
0
0
0
0
0
0
0
0
0
0
0
0
0
0
0
0
0
0
0
0
0
0
0
0
0
0
0
0
0
0
0
2
2
1
40
37
34
25
25
25
1
1
1
41
41
41
255
255
255
255
255
255
255
255
255
255
255
255
255
255
255
255
255
255
255
255
255
255
255
255
255
255
255
255
255
255
255
255
255
255
255
255
207
209
213
26
26
26
31
31
31
173
170
167
30
30
30
0
0
0
10
10
10
25
25
25
0
0
0
0
0
0
0
0
0
0
0
0
0
0
0
0
0
0
0
0
0
0
0
0
0
0
0
0
0
0
0
0
0
0
0
0
0
0
0
0
0
0
0
0
0
0
0
0
0
0
0
0
0
0
0
0
0
0
0
0
0
0
0
0
0
0
0
0
0
0
0
0
0
0
0
0
0
0
0
0
0
0
0
0
0
0
0
0
0
0
0
0
0
0
0
0
0
0
0
0
0
0
0
0
0
0
0
0
0
0
0
0
0
0
0
0
0
0
0
0
0
0
0
0
0
0
0
0
0
0
0
0
0
0
0
0
0
0
0
0
0
0
0
0
0
0
0
0
0
0
0
0
0
0
0
0
0
0
0
0
0
0
0
0
0
33
33
33
40
40
40
151
150
149
18
17
16
151
150
149
255
255
255
255
255
255
255
255
255
255
255
255
255
255
255
255
255
255
255
255
255
255
255
255
255
255
255
255
255
255
255
255
255
255
255
255
255
255
255
125
123
115
0
0
0
85
79
76
142
142
142
0
0
0
0
0
0
24
24
24
4
4
4
0
0
0
0
0
0
0
0
0
0
0
0
0
0
0
0
0
0
0
0
0
0
0
0
0
0
0
0
0
0
0
0
0
0
0
0
0
0
0
0
0
0
0
0
0
0
0
0
0
0
0
0
0
0
0
0
0
0
0
0
0
0
0
0
0
0
0
0
0
0
0
0
0
0
0
0
0
0
0
0
0
0
0
0
0
0
0
0
0
0
0
0
0
0
0
0
0
0
0
0
0
0
0
0
0
0
0
0
0
0
0
0
0
0
0
0
0
0
0
0
0
0
0
0
0
0
0
0
0
0
0
0
0
0
0
0
0
0
0
0
0
0
0
0
0
0
0
0
0
0
0
0
0
0
0
0
0
0
0
0
0
0
40
40
40
45
45
45
40
40
40
58
58
58
251
251
251
255
255
255
255
255
255
255
255
255
255
255
255
255
255
255
255
255
255
255
255
255
255
255
255
255
255
255
255
255
255
255
255
255
255
255
255
255
255
255
213
217
222
30
30
30
12
12
12
173
170
167
40
40
40
0
0
0
0
0
0
45
45
45
0
0
0
0
0
0
0
0
0
0
0
0
0
0
0
0
0
0
0
0
0
0
0
0
0
0
0
0
0
0
0
0
0
0
0
0
0
0
0
0
0
0
0
0
0
0
0
0
0
0
0
0
0
0
0
0
0
0
0
0
0
0
0
0
0
0
0
0
0
0
0
0
0
0
0
0
0
0
0
0
0
0
0
0
0
0
0
0
0
0
0
0
0
0
0
0
0
0
0
0
0
0
0
0
0
0
0
0
0
0
0
0
0
0
0
0
0
0
0
0
0
0
0
0
0
0
0
0
0
0
0
0
0
0
0
0
0
0
0
0
0
0
0
0
0
0
0
0
0
0
0
0
0
0
0
0
0
0
0
0
0
0
34
34
34
0
0
0
3
3
3
164
161
158
255
255
255
255
255
255
255
255
255
255
255
255
255
255
255
255
255
255
255
255
255
255
255
255
255
255
255
255
255
255
255
255
255
255
255
255
255
255
255
255
255
255
255
255
255
105
102
98
0
0
0
85
79
76
125
125
125
0
0
0
0
0
0
24
23
22
5
5
4
0
0
0
0
0
0
0
0
0
0
0
0
0
0
0
0
0
0
0
0
0
0
0
0
0
0
0
0
0
0
0
0
0
0
0
0
0
0
0
0
0
0
0
0
0
0
0
0
0
0
0
0
0
0
0
0
0
0
0
0
0
0
0
0
0
0
0
0
0
0
0
0
0
0
0
0
0
0
0
0
0
0
0
0
0
0
0
0
0
0
0
0
0
0
0
0
0
0
0
0
0
0
0
0
0
0
0
0
0
0
0
0
0
0
0
0
0
0
0
0
0
0
0
0
0
0
0
0
0
0
0
0
0
0
0
0
0
0
0
0
0
0
0
0
0
0
0
0
0
0
0
0
0
0
0
0
33
33
33
8
8
7
0
0
0
40
40
40
231
231
231
255
255
255
255
255
255
255
255
255
255
255
255
255
255
255
255
255
255
255
255
255
255
255
255
255
255
255
255
255
255
255
255
255
255
255
255
255
255
255
255
255
255
255
255
255
173
170
167
0
0
0
25
25
25
182
181
174
0
0
0
0
0
0
24
23
22
10
10
10
0
0
0
0
0
0
0
0
0
0
0
0
0
0
0
0
0
0
0
0
0
0
0
0
0
0
0
0
0
0
0
0
0
0
0
0
0
0
0
0
0
0
0
0
0
0
0
0
0
0
0
0
0
0
0
0
0
0
0
0
0
0
0
0
0
0
0
0
0
0
0
0
0
0
0
0
0
0
0
0
0
0
0
0
0
0
0
0
0
0
0
0
0
0
0
0
0
0
0
0
0
0
0
0
0
0
0
0
0
0
0
0
0
0
0
0
0
0
0
0
0
0
0
0
0
0
0
0
0
0
0
0
0
0
0
0
0
0
0
0
0
0
0
0
0
0
0
0
0
0
0
0
0
0
0
0
45
45
45
58
58
58
15
15
15
87
88
89
255
255
255
255
255
255
255
255
255
255
255
255
255
255
255
255
255
255
255
255
255
255
255
255
255
255
255
255
255
255
255
255
255
255
255
255
255
255
255
255
255
255
255
255
255
255
255
255
190
190
190
0
0
0
14
14
13
164
161
158
0
0
0
0
0
0
1
1
1
40
37
34
0
0
0
0
0
0
0
0
0
0
0
0
0
0
0
0
0
0
0
0
0
0
0
0
0
0
0
0
0
0
0
0
0
0
0
0
0
0
0
0
0
0
0
0
0
0
0
0
0
0
0
0
0
0
0
0
0
0
0
0
0
0
0
0
0
0
0
0
0
0
0
0
0
0
0
0
0
0
0
0
0
0
0
0
0
0
0
0
0
0
0
0
0
0
0
0
0
0
0
0
0
0
0
0
0
0
0
0
0
0
0
0
0
0
0
0
0
0
0
0
0
0
0
0
0
0
0
0
0
0
0
0
0
0
0
0
0
0
0
0
0
0
0
0
0
0
0
0
0
0
0
0
0
31
31
31
13
13
12
117
108
100
18
17
16
138
139
141
255
255
255
255
255
255
255
255
255
255
255
255
255
255
255
255
255
255
255
255
255
255
255
255
255
255
255
255
255
255
255
255
255
255
255
255
255
255
255
255
255
255
255
255
255
255
255
255
190
190
190
0
0
0
12
12
12
154
156
159
0
0
0
0
0
0
0
0
0
45
45
45
0
0
0
0
0
0
0
0
0
0
0
0
0
0
0
0
0
0
0
0
0
0
0
0
0
0
0
0
0
0
0
0
0
0
0
0
0
0
0
0
0
0
0
0
0
0
0
0
0
0
0
0
0
0
0
0
0
0
0
0
0
0
0
0
0
0
0
0
0
0
0
0
0
0
0
0
0
0
0
0
0
0
0
0
0
0
0
0
0
0
0
0
0
0
0
0
0
0
0
0
0
0
0
0
0
0
0
0
0
0
0
0
0
0
0
0
0
0
0
0
0
0
0
0
0
0
0
0
0
0
0
0
0
0
0
0
0
0
0
0
0
0
0
0
0
0
0
0
0
0
3
3
3
41
41
41
0
0
0
125
125
125
10
10
10
169
168
160
255
255
255
255
255
255
255
255
255
255
255
255
255
255
255
255
255
255
255
255
255
255
255
255
255
255
255
255
255
255
255
255
255
255
255
255
255
255
255
255
255
255
255
255
255
255
255
255
190
190
190
0
0
0
15
15
15
138
139
141
0
0
0
0
0
0
0
0
0
15
15
15
0
0
0
0
0
0
0
0
0
0
0
0
0
0
0
0
0
0
0
0
0
0
0
0
0
0
0
0
0
0
0
0
0
0
0
0
0
0
0
0
0
0
0
0
0
0
0
0
0
0
0
0
0
0
0
0
0
0
0
0
0
0
0
0
0
0
0
0
0
0
0
0
0
0
0
0
0
0
0
0
0
0
0
0
0
0
0
0
0
0
0
0
0
0
0
0
0
0
0
0
0
0
0
0
0
0
0
0
0
0
0
0
0
0
0
0
0
0
0
0
0
0
0
0
0
0
0
0
0
0
0
0
0
0
0
0
0
0
0
0
0
0
0
0
0
0
0
0
0
0
4
4
4
41
41
41
0
0
0
125
125
125
26
26
26
173
170
167
255
255
255
255
255
255
255
255
255
255
255
255
255
255
255
255
255
255
255
255
255
255
255
255
255
255
255
255
255
255
255
255
255
255
255
255
255
255
255
255
255
255
255
255
255
255
255
255
207
207
207
24
24
24
87
88
89
125
125
125
4
4
4
0
0
0
0
0
0
15
15
15
12
12
12
0
0
0
0
0
0
0
0
0
0
0
0
0
0
0
0
0
0
0
0
0
0
0
0
0
0
0
0
0
0
0
0
0
0
0
0
0
0
0
0
0
0
0
0
0
0
0
0
0
0
0
0
0
0
0
0
0
0
0
0
0
0
0
0
0
0
0
0
0
0
0
0
0
0
0
0
0
0
0
0
0
0
0
0
0
0
0
0
0
0
0
0
0
0
0
0
0
0
0
0
0
0
0
0
0
0
0
0
0
0
0
0
0
0
0
0
0
0
0
0
0
0
0
0
0
0
0
0
0
0
0
0
0
0
0
0
0
0
0
0
0
0
0
0
0
0
0
4
4
4
41
41
41
0
0
0
85
79
76
142
142
142
190
190
190
255
255
255
255
255
255
255
255
255
255
255
255
255
255
255
255
255
255
255
255
255
255
255
255
255
255
255
255
255
255
255
255
255
255
255
255
255
255
255
255
255
255
255
255
255
255
255
255
251
251
251
182
181
174
125
123
115
138
139
141
117
108
100
2
2
1
0
0
0
26
26
26
18
18
18
0
0
0
0
0
0
0
0
0
0
0
0
0
0
0
0
0
0
0
0
0
0
0
0
0
0
0
0
0
0
0
0
0
0
0
0
0
0
0
0
0
0
0
0
0
0
0
0
0
0
0
0
0
0
0
0
0
0
0
0
0
0
0
0
0
0
0
0
0
0
0
0
0
0
0
0
0
0
0
0
0
0
0
0
0
0
0
0
0
0
0
0
0
0
0
0
0
0
0
0
0
0
0
0
0
0
0
0
0
0
0
0
0
0
0
0
0
0
0
0
0
0
0
0
0
0
0
0
0
0
0
0
0
0
0
0
0
0
0
0
0
0
0
0
0
0
0
27
27
26
137
98
63
152
88
49
58
40
17
138
139
141
251
251
251
255
255
255
255
255
255
255
255
255
255
255
255
255
255
255
255
255
255
255
255
255
255
255
255
255
255
255
255
255
255
255
255
255
255
255
255
255
255
255
255
255
255
255
255
255
251
251
251
190
190
190
26
26
26
0
0
0
0
0
0
0
0
0
0
0
0
0
0
0
24
23
22
0
0
0
0
0
0
0
0
0
0
0
0
0
0
0
0
0
0
0
0
0
0
0
0
0
0
0
0
0
0
0
0
0
0
0
0
0
0
0
0
0
0
0
0
0
0
0
0
0
0
0
0
0
0
0
0
0
0
0
0
0
0
0
0
0
0
0
0
0
0
0
0
0
0
0
0
0
0
0
0
0
0
0
0
0
0
0
0
0
0
0
0
0
0
0
0
0
0
0
0
0
0
0
0
0
0
0
0
0
0
0
0
0
0
0
0
0
0
0
0
0
0
0
0
0
0
0
0
0
0
0
0
0
0
0
0
0
0
0
0
0
0
0
0
0
0
0
0
0
0
49
41
37
251
204
48
251
204
48
251
204
48
74
47
23
125
123
115
241
241
241
255
255
255
255
255
255
255
255
255
255
255
255
255
255
255
255
255
255
255
255
255
255
255
255
255
255
255
255
255
255
255
255
255
255
255
255
255
255
255
241
241
241
105
87
73
104
72
47
3
2
1
0
0
0
0
0
0
0
0
0
0
0
0
40
33
17
106
88
64
8
8
7
0
0
0
0
0
0
0
0
0
0
0
0
0
0
0
0
0
0
0
0
0
0
0
0
0
0
0
0
0
0
0
0
0
0
0
0
0
0
0
0
0
0
0
0
0
0
0
0
0
0
0
0
0
0
0
0
0
0
0
0
0
0
0
0
0
0
0
0
0
0
0
0
0
0
0
0
0
0
0
0
0
0
0
0
0
0
0
0
0
0
0
0
0
0
0
0
0
0
0
0
0
0
0
0
0
0
0
0
0
0
0
0
0
0
0
0
0
0
0
0
0
0
0
0
0
0
0
0
0
0
0
0
0
0
0
0
0
0
0
0
0
0
0
0
8
8
7
49
41
37
251
204
48
251
204
48
251
204
48
251
204
48
58
40
17
105
102
98
241
241
241
255
255
255
255
255
255
255
255
255
255
255
255
255
255
255
255
255
255
255
255
255
255
255
255
255
255
255
255
255
255
255
255
255
255
255
255
210
212
216
137
98
63
251
204
48
74
47
23
0
0
0
0
0
0
0
0
0
58
40
17
206
115
64
190
120
77
30
30
30
0
0
0
0
0
0
0
0
0
0
0
0
0
0
0
0
0
0
0
0
0
0
0
0
0
0
0
0
0
0
0
0
0
0
0
0
0
0
0
0
0
0
0
0
0
0
0
0
0
0
0
0
0
0
0
0
0
0
0
0
0
0
0
0
0
0
0
0
0
0
0
0
0
0
0
0
0
0
0
0
0
0
0
0
0
0
0
0
0
0
0
0
0
0
0
0
0
0
0
0
0
0
0
0
0
0
0
0
0
0
0
0
0
0
0
0
0
0
0
0
0
0
0
0
0
0
0
0
0
0
0
0
0
0
0
13
13
12
1
1
1
8
8
7
45
45
45
88
49
27
251
204
48
251
204
48
251
204
48
251
204
48
190
120
77
19
16
14
78
74
67
222
222
223
255
255
255
255
255
255
255
255
255
255
255
255
255
255
255
255
255
255
255
255
255
255
255
255
255
255
255
255
255
255
255
255
255
207
209
213
159
113
76
251
204
48
206
115
64
74
47
23
58
40
17
104
72
47
251
204
48
251
204
48
141
78
34
45
45
45
0
0
0
0
0
0
0
0
0
0
0
0
0
0
0
0
0
0
0
0
0
0
0
0
0
0
0
0
0
0
0
0
0
0
0
0
0
0
0
0
0
0
0
0
0
0
0
0
0
0
0
0
0
0
0
0
0
0
0
0
0
0
0
0
0
0
0
0
0
0
0
0
0
0
0
0
0
0
0
0
0
0
0
0
0
0
0
0
0
0
0
0
0
0
0
0
0
0
0
0
0
0
0
0
0
0
0
0
0
0
0
0
0
0
0
0
0
0
0
0
0
0
0
0
0
0
0
0
0
0
0
0
0
0
0
73
62
49
165
97
59
165
97
59
165
97
59
251
204
48
251
204
48
251
204
48
251
204
48
251
204
48
251
204
48
104
72
47
1
1
1
40
40
40
190
190
190
255
255
255
255
255
255
255
255
255
255
255
255
255
255
255
255
255
255
255
255
255
255
255
255
255
255
255
255
255
255
207
209
213
137
98
63
251
204
48
251
204
48
251
204
48
251
204
48
251
204
48
251
204
48
251
204
48
152
88
49
41
41
41
5
5
4
0
0
0
0
0
0
0
0
0
0
0
0
0
0
0
0
0
0
0
0
0
0
0
0
0
0
0
0
0
0
0
0
0
0
0
0
0
0
0
0
0
0
0
0
0
0
0
0
0
0
0
0
0
0
0
0
0
0
0
0
0
0
0
0
0
0
0
0
0
0
0
0
0
0
0
0
0
0
0
0
0
0
0
0
0
0
0
0
0
0
0
0
0
0
0
0
0
0
0
0
0
0
0
0
0
0
0
0
0
0
0
0
0
0
0
0
0
0
0
0
0
0
0
0
0
0
0
0
0
0
0
0
40
33
17
251
204
48
251
204
48
251
204
48
251
204
48
251
204
48
251
204
48
251
204
48
251
204
48
251
204
48
251
204
48
58
40
17
0
0
0
18
17
16
222
222
223
255
255
255
255
255
255
255
255
255
255
255
255
255
255
255
255
255
255
255
255
255
255
255
255
255
255
255
207
209
213
104
72
47
251
204
48
251
204
48
251
204
48
251
204
48
251
204
48
251
204
48
251
204
48
251
204
48
40
33
17
34
34
34
10
9
9
0
0
0
0
0
0
0
0
0
0
0
0
0
0
0
0
0
0
0
0
0
0
0
0
0
0
0
0
0
0
0
0
0
0
0
0
0
0
0
0
0
0
0
0
0
0
0
0
0
0
0
0
0
0
0
0
0
0
0
0
0
0
0
0
0
0
0
0
0
0
0
0
0
0
0
0
0
0
0
0
0
0
0
0
0
0
0
0
0
0
0
0
0
0
0
0
0
0
0
0
0
0
0
0
0
0
0
0
0
0
0
0
0
0
0
0
0
0
0
0
0
0
0
0
0
0
0
0
0
45
45
45
152
88
49
251
204
48
251
204
48
251
204
48
251
204
48
251
204
48
251
204
48
251
204
48
251
204
48
251
204
48
206
115
64
6
6
5
4
4
4
190
190
190
255
255
255
255
255
255
255
255
255
255
255
255
255
255
255
255
255
255
255
255
255
255
255
255
231
231
231
207
207
207
72
59
47
251
204
48
251
204
48
251
204
48
251
204
48
251
204
48
251
204
48
251
204
48
251
204
48
206
115
64
104
72
47
61
53
44
24
23
22
0
0
0
0
0
0
0
0
0
0
0
0
0
0
0
0
0
0
0
0
0
0
0
0
0
0
0
0
0
0
0
0
0
0
0
0
0
0
0
0
0
0
0
0
0
0
0
0
0
0
0
0
0
0
0
0
0
0
0
0
0
0
0
0
0
0
0
0
0
0
0
0
0
0
0
0
0
0
0
0
0
0
0
0
0
0
0
0
0
0
0
0
0
0
0
0
0
0
0
0
0
0
0
0
0
0
0
0
0
0
0
0
0
0
0
0
0
0
0
0
0
0
0
0
0
0
45
45
45
88
49
27
251
204
48
251
204
48
251
204
48
251
204
48
251
204
48
251
204
48
251
204
48
251
204
48
251
204
48
251
204
48
104
72
47
154
156
159
255
255
255
255
255
255
255
255
255
255
255
255
255
255
255
255
255
255
255
255
255
255
255
255
241
241
241
58
58
58
147
148
151
60
48
36
251
204
48
251
204
48
251
204
48
251
204
48
251
204
48
251
204
48
251
204
48
251
204
48
251
204
48
251
204
48
251
204
48
61
52
46
0
0
0
0
0
0
0
0
0
0
0
0
0
0
0
0
0
0
0
0
0
0
0
0
0
0
0
0
0
0
0
0
0
0
0
0
0
0
0
0
0
0
0
0
0
0
0
0
0
0
0
0
0
0
0
0
0
0
0
0
0
0
0
0
0
0
0
0
0
0
0
0
0
0
0
0
0
0
0
0
0
0
0
0
0
0
0
0
0
0
0
0
0
0
0
0
0
0
0
0
0
0
0
0
0
0
0
0
0
0
0
0
0
0
0
0
0
0
0
0
0
0
0
0
0
0
45
45
45
104
72
47
251
204
48
251
204
48
251
204
48
251
204
48
251
204
48
251
204
48
251
204
48
251
204
48
251
204
48
251
204
48
251
204
48
166
162
149
210
212
216
241
241
241
255
255
255
255
255
255
255
255
255
255
255
255
255
255
255
213
217
222
58
58
58
15
15
15
169
168
160
74
47
23
251
204
48
251
204
48
251
204
48
251
204
48
251
204
48
251
204
48
251
204
48
251
204
48
251
204
48
251
204
48
104
72
47
45
45
45
0
0
0
0
0
0
0
0
0
0
0
0
0
0
0
0
0
0
0
0
0
0
0
0
0
0
0
0
0
0
0
0
0
0
0
0
0
0
0
0
0
0
0
0
0
0
0
0
0
0
0
0
0
0
0
0
0
0
0
0
0
0
0
0
0
0
0
0
0
0
0
0
0
0
0
0
0
0
0
0
0
0
0
0
0
0
0
0
0
0
0
0
0
0
0
0
0
0
0
0
0
0
0
0
0
0
0
0
0
0
0
0
0
0
0
0
0
0
0
0
0
0
0
13
13
12
50
33
24
251
204
48
251
204
48
251
204
48
251
204
48
251
204
48
251
204
48
251
204
48
251
204
48
251
204
48
251
204
48
251
204
48
251
204
48
104
72
47
207
209
213
85
79
76
125
125
125
151
150
149
138
139
141
125
123
115
58
58
58
12
12
12
1
1
1
58
58
58
164
161
158
74
47
23
251
204
48
251
204
48
251
204
48
251
204
48
251
204
48
251
204
48
251
204
48
190
120
77
104
72
47
61
53
44
45
45
45
2
2
1
0
0
0
0
0
0
0
0
0
0
0
0
0
0
0
0
0
0
0
0
0
0
0
0
0
0
0
0
0
0
0
0
0
0
0
0
0
0
0
0
0
0
0
0
0
0
0
0
0
0
0
0
0
0
0
0
0
0
0
0
0
0
0
0
0
0
0
0
0
0
0
0
0
0
0
0
0
0
0
0
0
0
0
0
0
0
0
0
0
0
0
0
0
0
0
0
0
0
0
0
0
0
0
0
0
0
0
0
0
0
0
0
0
0
0
0
0
0
0
0
0
0
0
24
23
22
57
43
33
152
88
49
206
115
64
251
204
48
251
204
48
251
204
48
251
204
48
251
204
48
251
204
48
251
204
48
251
204
48
251
204
48
251
204
48
104
72
47
125
125
125
78
76
69
0
0
0
0
0
0
0
0
0
0
0
0
0
0
0
0
0
0
0
0
0
87
88
89
125
125
125
101
50
29
251
204
48
251
204
48
251
204
48
251
204
48
251
204
48
165
97
59
58
40
17
40
37
34
40
40
40
8
8
7
0
0
0
0
0
0
0
0
0
0
0
0
0
0
0
0
0
0
0
0
0
0
0
0
0
0
0
0
0
0
0
0
0
0
0
0
0
0
0
0
0
0
0
0
0
0
0
0
0
0
0
0
0
0
0
0
0
0
0
0
0
0
0
0
0
0
0
0
0
0
0
0
0
0
0
0
0
0
0
0
0
0
0
0
0
0
0
0
0
0
0
0
0
0
0
0
0
0
0
0
0
0
0
0
0
0
0
0
0
0
0
0
0
0
0
0
0
0
0
0
0
0
0
0
0
0
0
0
0
0
0
0
24
23
22
45
45
45
32
24
20
60
48
36
104
72
47
152
88
49
206
115
64
251
204
48
251
204
48
251
204
48
251
204
48
251
204
48
251
204
48
58
40
17
85
79
76
24
23
22
12
12
12
10
10
10
10
10
10
11
11
11
3
3
3
5
5
4
10
10
10
34
34
34
45
45
45
58
40
17
251
204
48
251
204
48
251
204
48
251
204
48
141
78
34
19
16
14
11
11
11
41
41
41
5
5
4
0
0
0
0
0
0
0
0
0
0
0
0
0
0
0
0
0
0
0
0
0
0
0
0
0
0
0
0
0
0
0
0
0
0
0
0
0
0
0
0
0
0
0
0
0
0
0
0
0
0
0
0
0
0
0
0
0
0
0
0
0
0
0
0
0
0
0
0
0
0
0
0
0
0
0
0
0
0
0
0
0
0
0
0
0
0
0
0
0
0
0
0
0
0
0
0
0
0
0
0
0
0
0
0
0
0
0
0
0
0
0
0
0
0
0
0
0
0
0
0
0
0
0
0
0
0
0
0
0
0
0
0
0
0
0
0
0
0
0
0
0
8
8
7
58
58
58
28
28
28
78
74
67
61
52
46
61
44
30
88
49
27
152
88
49
206
115
64
206
115
64
141
78
34
12
11
9
41
41
41
78
74
67
78
76
69
78
76
69
45
45
45
78
76
69
34
34
34
40
40
40
41
41
41
33
33
33
1
1
1
3
2
1
74
47
23
206
115
64
206
115
64
74
47
23
12
11
9
45
45
45
45
45
45
18
18
18
18
18
18
0
0
0
0
0
0
0
0
0
0
0
0
0
0
0
0
0
0
0
0
0
0
0
0
0
0
0
0
0
0
0
0
0
0
0
0
0
0
0
0
0
0
0
0
0
0
0
0
0
0
0
0
0
0
0
0
0
0
0
0
0
0
0
0
0
0
0
0
0
0
0
0
0
0
0
0
0
0
0
0
0
0
0
0
0
0
0
0
0
0
0
0
0
0
0
0
0
0
0
0
0
0
0
0
0
0
0
0
0
0
0
0
0
0
0
0
0
0
0
0
0
0
0
0
0
0
0
0
0
0
0
0
0
0
0
0
0
0
3
3
3
33
33
33
41
41
41
117
108
100
142
142
142
138
139
141
125
123
115
78
76
69
28
28
28
10
10
10
9
7
6
10
10
10
87
88
89
87
88
89
87
88
89
87
88
89
87
88
89
58
58
58
58
58
58
85
79
76
30
30
30
45
45
45
78
74
67
24
23
22
5
5
4
4
4
4
1
1
1
3
3
3
10
10
10
58
58
58
58
58
58
58
58
58
33
33
33
30
30
30
15
15
15
0
0
0
0
0
0
0
0
0
0
0
0
0
0
0
0
0
0
0
0
0
0
0
0
0
0
0
0
0
0
0
0
0
0
0
0
0
0
0
0
0
0
0
0
0
0
0
0
0
0
0
0
0
0
0
0
0
0
0
0
0
0
0
0
0
0
0
0
0
0
0
0
0
0
0
0
0
0
0
0
0
0
0
0
0
0
0
0
0
0
0
0
0
0
0
0
0
0
0
0
0
0
0
0
0
0
0
0
0
0
0
0
0
0
0
0
0
0
0
0
0
0
0
0
0
0
0
0
0
0
0
0
2
2
1
34
34
34
45
45
45
138
139
141
147
148
151
147
148
151
142
142
142
138
139
141
138
139
141
125
125
125
105
102
98
87
88
89
58
58
58
87
88
89
125
123
115
78
74
67
105
102
98
87
88
89
87
88
89
40
40
40
85
79
76
58
58
58
45
45
45
45
45
45
78
74
67
26
26
26
45
45
45
18
18
18
45
45
45
24
23
22
58
58
58
58
58
58
58
58
58
58
58
58
24
23
22
15
15
15
0
0
0
0
0
0
0
0
0
0
0
0
0
0
0
0
0
0
0
0
0
0
0
0
0
0
0
0
0
0
0
0
0
0
0
0
0
0
0
0
0
0
0
0
0
0
0
0
0
0
0
0
0
0
0
0
0
0
0
0
0
0
0
0
0
0
0
0
0
0
0
0
0
0
0
0
0
0
0
0
0
0
0
0
0
0
0
0
0
0
0
0
0
0
0
0
0
0
0
0
0
0
0
0
0
0
0
0
0
0
0
0
0
0
0
0
0
0
0
0
0
0
0
0
0
0
0
0
0
0
0
0
34
34
34
41
41
41
142
142
142
154
156
159
151
150
149
147
148
151
147
148
151
142
142
142
138
139
141
138
139
141
138
139
141
125
125
125
125
125
125
45
45
45
125
123
115
105
102
98
58
58
58
105
102
98
87
88
89
85
79
76
33
33
33
87
88
89
26
26
26
58
58
58
78
76
69
45
45
45
41
41
41
34
34
34
58
58
58
28
28
28
45
45
45
78
74
67
58
58
58
58
58
58
33
33
33
45
45
45
0
0
0
0
0
0
0
0
0
0
0
0
0
0
0
0
0
0
0
0
0
0
0
0
0
0
0
0
0
0
0
0
0
0
0
0
0
0
0
0
0
0
0
0
0
0
0
0
0
0
0
0
0
0
0
0
0
0
0
0
0
0
0
0
0
0
0
0
0
0
0
0
0
0
0
0
0
0
0
0
0
0
0
0
0
0
0
0
0
0
0
0
0
0
0
0
0
0
0
0
0
0
0
0
0
0
0
0
0
0
0
0
0
0
0
0
0
0
0
0
0
0
0
0
0
0
0
0
0
40
40
40
45
45
45
147
148
151
156
159
162
156
159
162
154
156
159
154
156
159
147
148
151
147
148
151
142
142
142
138
139
141
138
139
141
138
139
141
125
125
125
105
102
98
58
58
58
125
125
125
78
76
69
85
79
76
87
88
89
87
88
89
45
45
45
58
58
58
58
58
58
58
58
58
58
58
58
78
76
69
24
23
22
58
58
58
31
31
31
58
58
58
14
14
13
78
74
67
78
74
67
58
58
58
45
45
45
10
10
10
14
14
13
0
0
0
0
0
0
0
0
0
0
0
0
0
0
0
0
0
0
0
0
0
0
0
0
0
0
0
0
0
0
0
0
0
0
0
0
0
0
0
0
0
0
0
0
0
0
0
0
0
0
0
0
0
0
0
0
0
0
0
0
0
0
0
0
0
0
0
0
0
0
0
0
15
15
15
34
34
34
34
34
34
34
34
34
34
34
34
34
34
34
31
31
31
0
0
0
0
0
0
0
0
0
0
0
0
0
0
0
0
0
0
0
0
0
0
0
0
0
0
0
0
0
0
41
41
41
40
40
40
142
142
142
174
174
174
173
170
167
156
159
162
156
159
162
154
156
159
154
156
159
147
148
151
147
148
151
142
142
142
138
139
141
138
139
141
138
139
141
125
125
125
58
58
58
105
102
98
125
123
115
58
58
58
105
102
98
78
76
69
87
88
89
24
23
22
87
88
89
31
31
31
78
76
69
85
79
76
27
27
26
45
45
45
24
24
24
78
76
69
8
8
7
58
58
58
78
76
69
78
74
67
58
58
58
25
25
25
30
30
30
0
0
0
0
0
0
0
0
0
0
0
0
0
0
0
0
0
0
0
0
0
0
0
0
0
0
0
0
0
0
0
0
0
0
0
0
0
0
0
0
0
0
0
0
0
0
0
0
0
0
0
0
0
0
0
0
0
0
0
0
0
0
0
0
0
0
0
0
0
0
0
0
61
52
46
104
72
47
113
78
57
113
78
57
104
72
47
101
50
29
50
33
24
24
24
24
15
15
15
0
0
0
0
0
0
0
0
0
0
0
0
0
0
0
0
0
0
0
0
0
40
37
34
40
40
40
147
148
151
156
159
162
138
139
141
138
139
141
154
156
159
156
159
162
156
159
162
154
156
159
154
156
159
147
148
151
147
148
151
147
148
151
142
142
142
138
139
141
138
139
141
125
123
115
78
74
67
125
125
125
85
79
76
78
76
69
87
88
89
87
88
89
45
45
45
78
74
67
34
34
34
78
76
69
85
79
76
58
58
58
30
30
30
41
41
41
58
58
58
30
30
30
45
45
45
78
76
69
78
76
69
58
58
58
31
31
31
30
30
30
0
0
0
0
0
0
0
0
0
0
0
0
0
0
0
0
0
0
0
0
0
0
0
0
0
0
0
0
0
0
0
0
0
0
0
0
0
0
0
0
0
0
0
0
0
0
0
0
0
0
0
0
0
0
0
0
0
0
0
0
0
0
0
0
0
0
0
0
0
0
0
0
61
52
46
190
120
77
214
124
78
214
124
78
206
115
64
206
115
64
152
88
49
74
47
23
33
33
33
14
14
13
0
0
0
0
0
0
0
0
0
0
0
0
0
0
0
14
14
13
45
45
45
125
125
125
87
88
89
57
43
36
74
47
23
73
45
32
60
45
36
61
52
46
87
88
89
125
125
125
154
156
159
154
156
159
147
148
151
147
148
151
147
148
151
142
142
142
138
139
141
138
139
141
78
74
67
105
102
98
125
123
115
58
58
58
105
102
98
78
76
69
105
102
98
40
37
34
58
58
58
45
45
45
85
79
76
85
79
76
24
23
22
58
58
58
40
40
40
45
45
45
40
40
40
85
79
76
78
76
69
78
76
69
33
33
33
24
23
22
0
0
0
0
0
0
0
0
0
0
0
0
0
0
0
0
0
0
0
0
0
0
0
0
0
0
0
0
0
0
0
0
0
0
0
0
0
0
0
0
0
0
0
0
0
0
0
0
0
0
0
0
0
0
0
0
0
0
0
0
0
0
0
0
0
0
0
0
0
0
0
0
33
33
33
64
46
36
214
124
78
214
124
78
206
115
64
206
115
64
165
97
59
152
88
49
88
49
27
34
34
34
14
14
13
0
0
0
0
0
0
3
3
3
18
18
18
45
45
45
105
102
98
49
41
37
88
49
27
141
78
34
165
97
59
206
115
64
165
97
59
165
97
59
141
78
34
60
41
29
87
88
89
154
156
159
154
156
159
151
150
149
147
148
151
147
148
151
142
142
142
138
139
141
117
108
100
78
76
69
125
125
125
78
76
69
87
88
89
85
79
76
105
102
98
45
45
45
87
88
89
40
37
34
87
88
89
87
88
89
31
31
31
58
58
58
31
31
31
78
76
69
34
34
34
85
79
76
85
79
76
78
76
69
31
31
31
10
9
9
0
0
0
0
0
0
0
0
0
0
0
0
0
0
0
0
0
0
0
0
0
0
0
0
0
0
0
0
0
0
0
0
0
0
0
0
0
0
0
0
0
0
0
0
0
0
0
0
0
0
0
0
0
0
0
0
0
0
0
0
0
0
0
0
0
0
0
0
0
0
0
0
0
0
0
26
26
26
104
72
47
214
124
78
206
115
64
206
115
64
165
97
59
152
88
49
141
78
34
58
31
18
24
24
24
10
10
10
14
14
13
30
30
30
30
30
30
34
34
34
41
31
22
114
50
19
141
78
34
152
88
49
165
97
59
206
115
64
206
115
64
206
115
64
214
124
78
152
88
49
61
52
46
154
156
159
156
159
162
154
156
159
154
156
159
147
148
151
147
148
151
142
142
142
138
139
141
78
74
67
125
123
115
117
108
100
85
79
76
117
108
100
87
88
89
87
88
89
87
88
89
45
45
45
87
88
89
87
88
89
45
45
45
58
58
58
34
34
34
87
88
89
31
31
31
87
88
89
85
79
76
85
79
76
40
40
40
45
45
45
0
0
0
0
0
0
0
0
0
0
0
0
0
0
0
0
0
0
0
0
0
0
0
0
0
0
0
0
0
0
0
0
0
0
0
0
0
0
0
0
0
0
0
0
0
0
0
0
0
0
0
0
0
0
0
0
0
0
0
0
0
0
0
0
0
0
0
0
0
0
0
0
0
0
0
14
14
13
39
36
33
165
97
59
206
115
64
206
115
64
165
97
59
152
88
49
141
78
34
141
78
34
51
25
13
31
31
31
18
18
18
58
58
58
85
79
76
24
24
24
114
50
19
141
78
34
141
78
34
152
88
49
165
97
59
206
115
64
206
115
64
206
115
64
104
72
47
49
41
37
138
139
141
173
170
167
156
159
162
156
159
162
154
156
159
154
156
159
147
148
151
147
148
151
142
142
142
125
123
115
85
79
76
125
125
125
78
76
69
125
125
125
87
88
89
125
123
115
85
79
76
58
58
58
87
88
89
85
79
76
78
76
69
41
41
41
45
45
45
87
88
89
41
41
41
87
88
89
87
88
89
85
79
76
45
45
45
30
30
30
45
45
45
0
0
0
0
0
0
0
0
0
0
0
0
0
0
0
0
0
0
0
0
0
0
0
0
0
0
0
0
0
0
0
0
0
0
0
0
0
0
0
0
0
0
0
0
0
0
0
0
0
0
0
0
0
0
0
0
0
0
0
0
0
0
0
0
0
0
0
0
0
0
0
0
0
0
0
15
15
15
101
50
29
206
115
64
206
115
64
165
97
59
152
88
49
141
78
34
141
78
34
114
50
19
24
20
18
105
102
98
125
125
125
117
108
100
45
45
45
100
45
21
141
78
34
141
78
34
152
88
49
165
97
59
206
115
64
165
97
59
42
27
19
105
102
98
173
170
167
174
174
174
174
174
174
173
170
167
156
159
162
156
159
162
154
156
159
154
156
159
147
148
151
147
148
151
142
142
142
78
74
67
125
125
125
87
88
89
125
125
125
87
88
89
125
125
125
87
88
89
87
88
89
87
88
89
85
79
76
87
88
89
34
34
34
58
58
58
85
79
76
58
58
58
87
88
89
87
88
89
87
88
89
58
58
58
19
16
14
31
31
31
45
45
45
1
1
1
0
0
0
0
0
0
0
0
0
0
0
0
0
0
0
0
0
0
0
0
0
0
0
0
0
0
0
0
0
0
0
0
0
0
0
0
0
0
0
0
0
0
0
0
0
0
0
0
0
0
0
0
0
0
0
0
0
0
0
0
0
0
0
0
0
0
0
0
0
15
15
15
46
38
34
165
97
59
206
115
64
165
97
59
152
88
49
141
78
34
141
78
34
51
25
11
45
45
45
142
142
142
125
125
125
117
108
100
78
76
69
30
15
7
141
78
34
141
78
34
152
88
49
165
97
59
165
97
59
60
35
23
138
139
141
190
190
190
182
181
174
174
174
174
174
174
174
174
174
174
173
170
167
156
159
162
156
159
162
156
159
162
154
156
159
147
148
151
147
148
151
105
102
98
105
102
98
125
125
125
105
102
98
105
102
98
125
125
125
105
102
98
105
102
98
87
88
89
78
76
69
87
88
89
34
34
34
78
76
69
85
79
76
58
58
58
87
88
89
87
88
89
87
88
89
58
58
58
38
32
29
27
27
26
18
18
18
40
40
40
28
28
28
34
34
34
8
8
7
0
0
0
0
0
0
0
0
0
0
0
0
0
0
0
0
0
0
0
0
0
0
0
0
0
0
0
0
0
0
0
0
0
0
0
0
0
0
0
0
0
0
0
0
0
0
0
0
0
0
0
0
0
0
0
0
0
0
0
0
0
0
0
34
34
34
63
39
23
165
97
59
165
97
59
152
88
49
141
78
34
74
47
23
24
23
22
125
125
125
142
142
142
125
125
125
117
108
100
87
88
89
45
45
45
42
19
8
141
78
34
152
88
49
141
78
34
63
39
23
87
88
89
190
190
190
190
190
190
190
190
190
182
181
174
174
174
174
174
174
174
174
174
174
173
170
167
169
168
160
156
159
162
156
159
162
154
156
159
147
148
151
125
125
125
87
88
89
125
125
125
105
102
98
125
123
115
125
125
125
105
102
98
117
108
100
87
88
89
85
79
76
87
88
89
41
41
41
87
88
89
85
79
76
78
76
69
105
102
98
105
102
98
87
88
89
45
45
45
67
55
45
45
45
45
78
74
67
85
79
76
78
74
67
18
18
18
33
33
33
31
31
31
0
0
0
0
0
0
0
0
0
0
0
0
0
0
0
0
0
0
0
0
0
0
0
0
0
0
0
0
0
0
0
0
0
0
0
0
0
0
0
0
0
0
0
0
0
0
0
0
0
0
0
0
0
0
0
0
0
0
0
0
3
3
3
34
34
34
82
47
31
152
88
49
152
88
49
114
50
19
14
14
13
125
125
125
154
156
159
142
142
142
125
125
125
117
108
100
87
88
89
78
76
69
33
33
33
58
31
18
88
49
27
57
43
36
125
125
125
190
190
190
190
190
190
190
190
190
190
190
190
190
190
190
182
181
174
174
174
174
174
174
174
174
174
174
173
170
167
173
170
167
156
159
162
156
159
162
154
156
159
147
148
151
78
74
67
138
139
141
105
102
98
138
139
141
125
125
125
87
88
89
125
125
125
105
102
98
78
76
69
87
88
89
58
58
58
87
88
89
87
88
89
85
79
76
105
102
98
105
102
98
105
102
98
45
45
45
86
70
56
58
58
58
85
79
76
105
102
98
125
123
115
40
40
40
87
88
89
27
27
26
45
45
45
28
28
28
13
13
12
0
0
0
0
0
0
0
0
0
0
0
0
0
0
0
0
0
0
0
0
0
0
0
0
0
0
0
0
0
0
0
0
0
0
0
0
0
0
0
0
0
0
0
0
0
0
0
0
0
0
0
0
0
0
4
4
4
34
34
34
47
35
27
88
49
27
19
16
14
125
123
115
174
174
174
154
156
159
142
142
142
125
125
125
117
108
100
87
88
89
78
76
69
58
58
58
24
20
18
58
58
58
182
181
174
201
205
211
201
205
211
201
205
211
190
190
190
190
190
190
190
190
190
190
190
190
190
190
190
182
181
174
174
174
174
174
174
174
173
170
167
173
170
167
156
159
162
156
159
162
154
156
159
85
79
76
138
139
141
87
88
89
142
142
142
125
123
115
87
88
89
125
125
125
117
108
100
78
76
69
87
88
89
58
58
58
87
88
89
105
102
98
87
88
89
105
102
98
105
102
98
105
102
98
45
45
45
112
96
74
58
58
58
85
79
76
102
94
86
105
102
98
45
45
45
105
102
98
78
74
67
78
74
67
45
45
45
45
45
45
0
0
0
0
0
0
0
0
0
0
0
0
0
0
0
0
0
0
0
0
0
0
0
0
0
0
0
0
0
0
0
0
0
0
0
0
0
0
0
0
0
0
0
0
0
0
0
0
0
0
0
0
0
0
0
0
0
3
3
3
27
27
26
34
34
34
117
108
100
190
190
190
174
174
174
154
156
159
142
142
142
125
125
125
117
108
100
87
88
89
78
76
69
58
58
58
33
33
33
30
30
30
182
181
174
207
209
213
201
205
211
201
205
211
201
205
211
190
190
190
190
190
190
190
190
190
190
190
190
190
190
190
182
181
174
174
174
174
174
174
174
174
174
174
173
170
167
156
159
162
156
159
162
87
88
89
125
125
125
87
88
89
138
139
141
105
102
98
87
88
89
117
108
100
125
125
125
58
58
58
105
102
98
85
79
76
87
88
89
105
102
98
117
108
100
117
108
100
117
108
100
87
88
89
60
48
36
126
103
91
15
15
15
24
23
22
31
31
31
31
31
31
27
27
26
28
28
28
125
125
125
85
79
76
105
102
98
45
45
45
0
0
0
0
0
0
0
0
0
0
0
0
0
0
0
0
0
0
0
0
0
0
0
0
0
0
0
0
0
0
0
0
0
0
0
0
0
0
0
0
0
0
0
0
0
0
0
0
0
0
0
0
0
0
0
0
0
0
0
0
31
31
31
24
23
22
190
190
190
190
190
190
174
174
174
154
156
159
142
142
142
125
125
125
117
108
100
87
88
89
78
76
69
58
58
58
28
28
28
23
11
5
105
102
98
210
212
216
207
209
213
205
208
211
201
205
211
201
205
211
190
190
190
190
190
190
190
190
190
190
190
190
190
190
190
182
181
174
174
174
174
174
174
174
174
174
174
173
170
167
156
159
162
105
102
98
138
139
141
105
102
98
125
125
125
117
108
100
87
88
89
105
102
98
125
125
125
78
74
67
117
108
100
87
88
89
105
102
98
105
102
98
125
123
115
125
123
115
117
108
100
58
58
58
60
48
36
46
38
34
24
23
22
15
15
15
28
28
28
28
28
28
24
23
22
40
40
40
58
58
58
45
45
45
45
45
45
34
34
34
0
0
0
0
0
0
0
0
0
0
0
0
0
0
0
0
0
0
0
0
0
0
0
0
0
0
0
0
0
0
0
0
0
0
0
0
0
0
0
0
0
0
0
0
0
0
0
0
0
0
0
0
0
0
0
0
0
1
1
1
26
26
26
85
79
76
207
207
207
190
190
190
174
174
174
154
156
159
142
142
142
125
125
125
117
108
100
87
88
89
78
76
69
40
40
40
36
18
10
88
49
27
24
23
22
174
174
174
210
212
216
207
209
213
205
208
211
201
205
211
201
205
211
201
205
211
190
190
190
190
190
190
190
190
190
190
190
190
182
181
174
174
174
174
174
174
174
174
174
174
173
170
167
105
102
98
138
139
141
87
88
89
105
102
98
125
125
125
85
79
76
105
102
98
117
108
100
105
102
98
117
108
100
125
123
115
117
108
100
105
102
98
125
125
125
125
125
125
105
102
98
18
18
18
14
14
13
34
34
34
0
0
0
0
0
0
0
0
0
0
0
0
0
0
0
0
0
0
0
0
0
0
0
0
0
0
0
0
0
0
0
0
0
0
0
0
0
0
0
0
0
0
0
0
0
0
0
0
0
0
0
0
0
0
0
0
0
0
0
0
0
0
0
0
0
0
0
0
0
0
0
0
0
0
0
0
0
0
0
0
0
0
0
0
0
0
0
12
12
12
40
40
40
164
161
158
207
207
207
190
190
190
174
174
174
154
156
159
142
142
142
125
125
125
117
108
100
87
88
89
45
45
45
58
31
18
206
115
64
152
88
49
6
3
0
87
88
89
213
217
222
210
212
216
210
212
216
205
208
211
201
205
211
201
205
211
201
205
211
190
190
190
190
190
190
190
190
190
190
190
190
182
181
174
174
174
174
174
174
174
174
174
174
87
88
89
142
142
142
105
102
98
87
88
89
138
139
141
105
102
98
105
102
98
138
139
141
138
139
141
138
139
141
125
125
125
105
102
98
125
125
125
125
125
125
105
102
98
24
23
22
11
11
11
34
34
34
0
0
0
0
0
0
0
0
0
0
0
0
0
0
0
0
0
0
0
0
0
0
0
0
0
0
0
0
0
0
0
0
0
0
0
0
0
0
0
0
0
0
0
0
0
0
0
0
0
0
0
0
0
0
0
0
0
0
0
0
0
0
0
0
0
0
0
0
0
0
0
0
0
0
0
0
0
0
0
0
0
0
0
0
0
0
0
0
0
0
24
23
22
30
30
30
210
212
216
207
207
207
190
190
190
174
174
174
154
156
159
142
142
142
125
125
125
117
108
100
78
74
67
52
28
16
206
115
64
206
115
64
165
97
59
42
27
19
25
25
25
156
159
162
213
217
222
213
217
222
210
212
216
207
209
213
201
205
211
201
205
211
201
205
211
190
190
190
190
190
190
190
190
190
190
190
190
190
190
190
182
181
174
174
174
174
87
88
89
147
148
151
117
108
100
117
108
100
142
142
142
142
142
142
142
142
142
147
148
151
147
148
151
142
142
142
138
139
141
125
125
125
125
125
125
58
58
58
32
24
20
24
20
18
38
32
29
25
25
25
0
0
0
0
0
0
0
0
0
0
0
0
0
0
0
0
0
0
0
0
0
0
0
0
0
0
0
0
0
0
0
0
0
0
0
0
0
0
0
0
0
0
0
0
0
0
0
0
0
0
0
0
0
0
0
0
0
0
0
0
0
0
0
0
0
0
0
0
0
0
0
0
0
0
0
0
0
0
0
0
0
0
0
0
0
0
0
0
0
0
45
45
45
85
79
76
222
222
223
207
207
207
190
190
190
174
174
174
154
156
159
142
142
142
125
125
125
87
88
89
24
20
18
165
97
59
206
115
64
206
115
64
206
115
64
73
45
32
92
71
57
58
58
58
213
217
222
213
217
222
213
217
222
210
212
216
207
209
213
201
205
211
201
205
211
201
205
211
190
190
190
190
190
190
190
190
190
190
190
190
190
190
190
173
170
167
87
88
89
142
142
142
125
125
125
147
148
151
156
159
162
156
159
162
142
142
142
138
139
141
138
139
141
125
123
115
85
79
76
41
41
41
32
24
20
32
24
20
42
27
19
152
88
49
104
72
47
25
25
25
0
0
0
0
0
0
0
0
0
0
0
0
0
0
0
0
0
0
0
0
0
0
0
0
0
0
0
0
0
0
0
0
0
0
0
0
0
0
0
0
0
0
0
0
0
0
0
0
0
0
0
0
0
0
0
0
0
0
0
0
0
0
0
0
0
0
0
0
0
0
0
0
0
0
0
0
0
0
0
0
0
0
0
0
0
0
0
0
0
0
45
45
45
125
125
125
222
222
223
207
207
207
190
190
190
174
174
174
154
156
159
142
142
142
105
102
98
18
17
16
3
2
1
52
28
16
206
115
64
206
115
64
206
115
64
88
49
27
166
125
96
55
42
34
138
139
141
222
222
223
213
217
222
213
217
222
210
212
216
207
209
213
205
208
211
201
205
211
201
205
211
190
190
190
190
190
190
190
190
190
190
190
190
147
148
151
117
108
100
156
159
162
147
148
151
105
102
98
58
58
58
61
52
46
73
62
49
79
66
56
79
66
56
86
70
56
92
71
57
73
62
49
42
27
19
101
50
29
206
115
64
214
124
78
113
78
57
25
25
25
0
0
0
0
0
0
0
0
0
0
0
0
0
0
0
0
0
0
0
0
0
0
0
0
0
0
0
0
0
0
0
0
0
0
0
0
0
0
0
0
0
0
0
0
0
0
0
0
0
0
0
0
0
0
0
0
0
0
0
0
0
0
0
0
0
0
0
0
0
0
0
0
0
0
0
0
0
0
0
0
0
0
0
0
0
0
0
0
0
0
45
45
45
164
161
158
222
222
223
207
207
207
190
190
190
174
174
174
154
156
159
125
123
115
39
36
33
9
7
6
31
31
31
9
7
6
206
115
64
206
115
64
206
115
64
88
49
27
166
125
96
166
125
96
39
36
33
138
139
141
201
205
211
213
217
222
213
217
222
210
212
216
207
209
213
205
208
211
201
205
211
201
205
211
201
205
211
190
190
190
190
190
190
87
88
89
58
58
58
78
76
69
61
52
46
122
99
88
185
143
123
209
189
135
217
202
150
198
183
132
166
125
96
72
59
47
58
40
17
114
50
19
152
88
49
206
115
64
214
124
78
214
124
78
113
78
57
25
25
25
0
0
0
0
0
0
0
0
0
0
0
0
0
0
0
0
0
0
0
0
0
0
0
0
0
0
0
0
0
0
0
0
0
0
0
0
0
0
0
0
0
0
0
0
0
0
0
0
0
0
0
0
0
0
0
0
0
0
0
0
0
0
0
0
0
0
0
0
0
0
0
0
0
0
0
0
0
0
0
0
0
0
0
0
0
0
0
0
0
0
24
23
22
182
181
174
222
222
223
207
207
207
190
190
190
174
174
174
138
139
141
57
43
36
113
78
57
36
18
10
73
64
54
82
47
31
206
115
64
206
115
64
206
115
64
47
26
14
73
62
49
192
173
109
189
142
105
86
70
56
58
58
58
105
102
98
174
174
174
190
190
190
201
205
211
174
174
174
138
139
141
138
139
141
138
139
141
125
125
125
78
76
69
79
66
56
145
115
89
166
125
96
159
146
99
192
173
109
166
125
96
112
96
74
86
65
50
60
41
29
30
15
7
114
50
19
141
78
34
152
88
49
206
115
64
206
115
64
214
124
78
214
124
78
104
72
47
25
25
25
0
0
0
0
0
0
0
0
0
0
0
0
0
0
0
0
0
0
0
0
0
0
0
0
0
0
0
0
0
0
0
0
0
0
0
0
0
0
0
0
0
0
0
0
0
0
0
0
0
0
0
0
0
0
0
0
0
0
0
0
0
0
0
0
0
0
0
0
0
0
0
0
0
0
0
0
0
0
0
0
0
0
0
0
0
0
0
12
12
12
40
37
34
190
190
190
222
222
223
207
207
207
190
190
190
151
150
149
61
52
46
152
88
49
214
124
78
152
88
49
165
97
59
206
115
64
206
115
64
206
115
64
101
50
29
88
49
27
141
78
34
61
44
30
92
71
57
178
138
106
178
138
106
122
99
88
67
55
45
67
57
50
78
74
67
49
41
37
55
42
34
84
67
52
106
88
64
84
67
52
63
51
43
73
64
54
49
41
37
34
29
25
51
25
13
51
25
11
58
31
18
100
45
21
114
50
19
100
45
21
44
18
5
114
50
19
114
50
19
152
88
49
165
97
59
206
115
64
214
124
78
214
124
78
64
46
36
24
23
22
0
0
0
0
0
0
0
0
0
0
0
0
0
0
0
0
0
0
0
0
0
0
0
0
0
0
0
0
0
0
0
0
0
0
0
0
0
0
0
0
0
0
0
0
0
0
0
0
0
0
0
0
0
0
0
0
0
0
0
0
0
0
0
0
0
0
0
0
0
0
0
0
0
0
0
0
0
0
0
0
0
0
0
0
0
0
0
18
18
18
58
58
58
210
212
216
222
222
223
207
207
207
173
170
167
45
45
45
152
88
49
214
124
78
214
124
78
214
124
78
214
124
78
214
124
78
206
115
64
88
49
27
63
39
23
165
97
59
206
115
64
214
124
78
165
97
59
73
45
32
47
35
27
109
86
70
178
138
106
209
189
135
198
183
132
192
173
109
145
115
89
86
70
56
60
41
29
60
35
23
28
28
28
31
31
31
27
27
26
47
35
27
152
51
9
152
51
9
152
51
9
152
51
9
152
51
9
58
31
18
6
3
0
44
18
5
44
18
5
42
19
8
63
39
23
141
78
34
214
124
78
165
97
59
39
36
33
0
0
0
0
0
0
0
0
0
0
0
0
0
0
0
0
0
0
0
0
0
0
0
0
0
0
0
0
0
0
0
0
0
0
0
0
0
0
0
0
0
0
0
0
0
0
0
0
0
0
0
0
0
0
0
0
0
0
0
0
0
0
0
0
0
0
0
0
0
0
0
0
0
0
0
0
0
0
0
0
0
0
0
0
0
0
0
0
0
0
18
18
18
58
58
58
222
222
223
222
222
223
190
190
190
41
41
41
135
85
55
214
124
78
214
124
78
214
124
78
214
124
78
214
124
78
206
115
64
60
35
23
35
13
4
42
17
6
35
13
4
52
28
16
141
78
34
214
124
78
147
93
62
9
7
6
100
45
21
63
39
23
51
25
13
49
30
19
63
39
23
104
72
47
190
120
77
214
124
78
147
93
62
45
45
45
0
0
0
8
8
7
19
16
14
114
50
19
152
51
9
152
51
9
152
51
9
51
25
11
12
11
9
44
18
5
152
51
9
152
51
9
152
51
9
114
50
19
51
25
11
82
47
31
54
40
30
31
31
31
0
0
0
0
0
0
0
0
0
0
0
0
0
0
0
0
0
0
0
0
0
0
0
0
0
0
0
0
0
0
0
0
0
0
0
0
0
0
0
0
0
0
0
0
0
0
0
0
0
0
0
0
0
0
0
0
0
0
0
0
0
0
0
0
0
0
0
0
0
0
0
0
0
0
0
0
0
0
0
0
0
0
0
0
0
0
0
0
0
0
18
18
18
33
33
33
78
74
67
117
108
100
49
41
37
165
97
59
214
124
78
214
124
78
190
120
77
206
115
64
214
124
78
165
97
59
36
18
10
100
45
21
152
51
9
152
51
9
152
51
9
152
51
9
51
25
11
104
72
47
49
30
19
23
11
5
141
78
34
152
88
49
165
97
59
206
115
64
206
115
64
214
124
78
214
124
78
214
124
78
101
50
29
24
24
24
0
0
0
0
0
0
45
45
45
44
18
5
44
18
5
41
31
22
40
40
40
30
30
30
58
58
58
44
18
5
152
51
9
152
51
9
152
51
9
152
51
9
152
51
9
35
13
4
26
26
26
0
0
0
0
0
0
0
0
0
0
0
0
0
0
0
0
0
0
0
0
0
0
0
0
0
0
0
0
0
0
0
0
0
0
0
0
0
0
0
0
0
0
0
0
0
0
0
0
0
0
0
0
0
0
0
0
0
0
0
0
0
0
0
0
0
0
0
0
0
0
0
0
0
0
0
0
0
0
0
0
0
0
0
0
0
0
0
0
0
0
0
0
0
10
10
10
81
49
35
214
124
78
165
97
59
190
120
77
214
124
78
214
124
78
214
124
78
104
72
47
152
88
49
104
72
47
42
17
6
114
50
19
51
25
11
152
51
9
152
51
9
152
51
9
152
51
9
51
25
11
3
2
1
0
0
0
44
18
5
35
13
4
74
47
23
152
88
49
206
115
64
206
115
64
214
124
78
214
124
78
214
124
78
65
48
39
6
6
5
0
0
0
0
0
0
10
10
10
45
45
45
18
18
18
4
4
4
6
6
5
1
1
1
40
37
34
23
11
5
58
31
18
100
45
21
100
45
21
114
50
19
152
51
9
44
18
5
30
30
30
0
0
0
0
0
0
0
0
0
0
0
0
0
0
0
0
0
0
0
0
0
0
0
0
0
0
0
0
0
0
0
0
0
0
0
0
0
0
0
0
0
0
0
0
0
0
0
0
0
0
0
0
0
0
0
0
0
0
0
0
0
0
0
0
0
0
0
0
0
0
0
0
0
0
0
0
0
0
0
0
0
0
0
0
0
0
0
0
0
0
0
0
0
31
31
31
135
85
55
209
147
116
209
147
116
209
147
116
214
124
78
214
124
78
214
124
78
88
49
27
36
18
10
51
25
11
152
51
9
152
51
9
44
18
5
152
51
9
152
51
9
152
51
9
58
31
18
3
2
1
0
0
0
44
18
5
152
51
9
152
51
9
74
47
23
51
25
11
152
88
49
206
115
64
214
124
78
214
124
78
214
124
78
49
41
37
11
11
11
0
0
0
0
0
0
0
0
0
0
0
0
0
0
0
0
0
0
0
0
0
0
0
0
3
3
3
40
37
34
18
18
18
34
32
27
34
32
27
38
32
29
47
35
27
40
37
34
8
8
7
0
0
0
0
0
0
0
0
0
0
0
0
0
0
0
0
0
0
0
0
0
0
0
0
0
0
0
0
0
0
0
0
0
0
0
0
0
0
0
0
0
0
0
0
0
0
0
0
0
0
0
0
0
0
0
0
0
0
0
0
0
0
0
0
0
0
0
0
0
0
0
0
0
0
0
0
0
0
0
0
0
0
0
0
0
0
0
0
0
0
15
15
15
24
20
18
52
28
16
101
50
29
190
120
77
209
147
116
214
124
78
214
124
78
165
97
59
54
40
30
31
29
27
100
45
21
152
51
9
100
45
21
51
25
11
152
51
9
114
50
19
44
18
5
19
16
14
40
40
40
9
7
6
114
50
19
152
51
9
152
51
9
152
51
9
100
45
21
58
31
18
206
115
64
214
124
78
214
124
78
165
97
59
24
23
22
2
2
1
0
0
0
0
0
0
0
0
0
0
0
0
0
0
0
0
0
0
0
0
0
0
0
0
0
0
0
0
0
0
3
3
3
18
17
16
18
17
16
18
17
16
18
17
16
11
11
11
0
0
0
0
0
0
0
0
0
0
0
0
0
0
0
0
0
0
0
0
0
0
0
0
0
0
0
0
0
0
0
0
0
0
0
0
0
0
0
0
0
0
0
0
0
0
0
0
0
0
0
0
0
0
0
0
0
0
0
0
0
0
0
0
0
0
0
0
0
0
0
0
0
0
0
0
0
0
0
0
0
0
0
0
0
0
0
0
0
0
0
0
0
34
34
34
30
15
7
100
45
21
58
40
17
63
39
23
209
147
116
214
124
78
165
97
59
54
40
30
28
28
28
45
45
45
36
26
20
42
27
19
24
20
18
12
11
9
36
26
20
19
16
14
41
41
41
25
25
25
34
34
34
44
18
5
152
51
9
152
51
9
152
51
9
152
51
9
152
51
9
58
31
18
104
72
47
214
124
78
214
124
78
73
45
32
40
37
34
0
0
0
0
0
0
0
0
0
0
0
0
0
0
0
0
0
0
0
0
0
0
0
0
0
0
0
0
0
0
0
0
0
0
0
0
0
0
0
0
0
0
0
0
0
0
0
0
0
0
0
0
0
0
0
0
0
0
0
0
0
0
0
0
0
0
0
0
0
0
0
0
0
0
0
0
0
0
0
0
0
0
0
0
0
0
0
0
0
0
0
0
0
0
0
0
0
0
0
0
0
0
0
0
0
0
0
0
0
0
0
0
0
0
0
0
0
0
0
0
0
0
0
0
0
0
0
0
0
0
0
0
0
0
0
0
0
0
0
0
0
0
0
0
41
41
41
30
15
7
114
50
19
58
40
17
104
72
47
214
124
78
104
72
47
38
32
29
25
25
25
0
0
0
5
5
4
28
28
28
28
28
28
28
28
28
1
1
1
26
26
26
5
5
4
0
0
0
0
0
0
3
2
1
100
45
21
152
51
9
152
51
9
152
51
9
152
51
9
152
51
9
114
50
19
58
31
18
206
115
64
104
72
47
45
45
45
5
5
4
0
0
0
0
0
0
0
0
0
0
0
0
0
0
0
0
0
0
0
0
0
0
0
0
0
0
0
0
0
0
0
0
0
0
0
0
0
0
0
0
0
0
0
0
0
0
0
0
0
0
0
0
0
0
0
0
0
0
0
0
0
0
0
0
0
0
0
0
0
0
0
0
0
0
0
0
0
0
0
0
0
0
0
0
0
0
0
0
0
0
0
0
0
0
0
0
0
0
0
0
0
0
0
0
0
0
0
0
0
0
0
0
0
0
0
0
0
0
0
0
0
0
0
0
0
0
0
0
0
0
0
0
0
0
0
0
0
0
0
0
0
0
0
0
10
9
9
27
27
26
47
26
14
30
15
7
81
49
35
41
31
22
40
40
40
15
15
15
6
6
5
0
0
0
0
0
0
0
0
0
0
0
0
0
0
0
0
0
0
0
0
0
0
0
0
0
0
0
0
0
0
28
28
28
51
25
11
152
51
9
152
51
9
152
51
9
152
51
9
152
51
9
152
51
9
42
17
6
73
45
32
24
24
24
18
18
18
0
0
0
0
0
0
0
0
0
0
0
0
0
0
0
0
0
0
0
0
0
0
0
0
0
0
0
0
0
0
0
0
0
0
0
0
0
0
0
0
0
0
0
0
0
0
0
0
0
0
0
0
0
0
0
0
0
0
0
0
0
0
0
0
0
0
0
0
0
0
0
0
0
0
0
0
0
0
0
0
0
0
0
0
0
0
0
0
0
0
0
0
0
0
0
0
0
0
0
0
0
0
0
0
0
0
0
0
0
0
0
0
0
0
0
0
0
0
0
0
0
0
0
0
0
0
0
0
0
0
0
0
0
0
0
0
0
0
0
0
0
0
0
0
0
0
0
0
0
0
8
8
7
40
40
40
40
40
40
40
40
40
18
18
18
0
0
0
0
0
0
0
0
0
0
0
0
0
0
0
0
0
0
0
0
0
0
0
0
0
0
0
0
0
0
0
0
0
0
0
0
0
0
0
4
4
4
45
45
45
61
52
46
60
37
24
44
18
5
44
18
5
35
13
4
47
35
27
41
41
41
24
24
24
0
0
0
0
0
0
0
0
0
0
0
0
0
0
0
0
0
0
0
0
0
0
0
0
0
0
0
0
0
0
0
0
0
0
0
0
0
0
0
0
0
0
0
0
0
0
0
0
0
0
0
0
0
0
0
0
0
0
0
0
0
0
0
0
0
0
0
0
0
0
0
0
0
0
0
0
0
0
0
0
0
0
0
0
0
0
0
0
0
0
0
0
0
0
0
0
0
0
0
0
0
0
0
0
0
0
0
0
0
0
0
0
0
0
0
0
0
0
0
0
0
0
0
